<svg xmlns="http://www.w3.org/2000/svg" viewBox="0 0 1600 900" preserveAspectRatio="xMidYMid slice">
  <defs>
    <linearGradient id="sky" x1="0" x2="0" y1="0" y2="1">
      <stop offset="0%" stop-color="#f9efe0"/>
      <stop offset="100%" stop-color="#f3dcc0"/>
    </linearGradient>
    <linearGradient id="road" x1="0" x2="0" y1="0" y2="1">
      <stop offset="0%" stop-color="#6b7280"/>
      <stop offset="100%" stop-color="#374151"/>
    </linearGradient>
  </defs>

  <rect width="1600" height="900" fill="url(#sky)"/>

  <g fill="#f6d7af" opacity="0.75">
    <path d="M0 520 L220 390 L470 520 Z"/>
    <path d="M350 520 L620 360 L920 520 Z"/>
    <path d="M760 520 L1090 340 L1460 520 Z"/>
    <path d="M1280 520 L1510 390 L1600 520 Z"/>
  </g>

  <rect x="0" y="520" width="1600" height="380" fill="url(#road)"/>

  <g stroke="#f8fafc" stroke-width="8" stroke-linecap="round" opacity="0.65">
    <line x1="120" y1="710" x2="280" y2="710"/>
    <line x1="400" y1="710" x2="560" y2="710"/>
    <line x1="680" y1="710" x2="840" y2="710"/>
    <line x1="960" y1="710" x2="1120" y2="710"/>
    <line x1="1240" y1="710" x2="1400" y2="710"/>
  </g>

  <g transform="translate(170 560)">
    <rect x="0" y="48" width="240" height="58" rx="18" fill="#1f2937"/>
    <rect x="38" y="18" width="110" height="45" rx="10" fill="#111827"/>
    <rect x="128" y="22" width="72" height="37" rx="8" fill="#111827"/>
    <circle cx="56" cy="114" r="20" fill="#111827"/>
    <circle cx="184" cy="114" r="20" fill="#111827"/>
    <circle cx="56" cy="114" r="10" fill="#9ca3af"/>
    <circle cx="184" cy="114" r="10" fill="#9ca3af"/>
  </g>

  <g transform="translate(910 585)">
    <rect x="0" y="42" width="210" height="50" rx="16" fill="#334155"/>
    <rect x="30" y="18" width="96" height="36" rx="8" fill="#1e293b"/>
    <rect x="110" y="22" width="62" height="31" rx="8" fill="#1e293b"/>
    <circle cx="48" cy="100" r="18" fill="#111827"/>
    <circle cx="165" cy="100" r="18" fill="#111827"/>
    <circle cx="48" cy="100" r="9" fill="#9ca3af"/>
    <circle cx="165" cy="100" r="9" fill="#9ca3af"/>
  </g>
</svg>
