<svg xmlns="http://www.w3.org/2000/svg" viewBox="0 0 1600 900" preserveAspectRatio="xMidYMid slice">
  <defs>
    <linearGradient id="nightSky" x1="0" x2="0" y1="0" y2="1">
      <stop offset="0%" stop-color="#0b1325"/>
      <stop offset="100%" stop-color="#1f2f4a"/>
    </linearGradient>
    <linearGradient id="nightRoad" x1="0" x2="0" y1="0" y2="1">
      <stop offset="0%" stop-color="#4b5563"/>
      <stop offset="100%" stop-color="#1f2937"/>
    </linearGradient>
  </defs>

  <rect width="1600" height="900" fill="url(#nightSky)"/>

  <g fill="#f8fafc" opacity="0.85">
    <circle cx="170" cy="120" r="2.4"/>
    <circle cx="290" cy="90" r="1.8"/>
    <circle cx="520" cy="140" r="2.2"/>
    <circle cx="760" cy="80" r="2.6"/>
    <circle cx="980" cy="130" r="1.8"/>
    <circle cx="1210" cy="100" r="2.4"/>
    <circle cx="1430" cy="140" r="2"/>
  </g>

  <circle cx="1340" cy="160" r="62" fill="#fde68a" opacity="0.95"/>

  <g fill="#334155" opacity="0.8">
    <path d="M0 520 L220 390 L470 520 Z"/>
    <path d="M350 520 L620 360 L920 520 Z"/>
    <path d="M760 520 L1090 340 L1460 520 Z"/>
    <path d="M1280 520 L1510 390 L1600 520 Z"/>
  </g>

  <rect x="0" y="520" width="1600" height="380" fill="url(#nightRoad)"/>

  <g stroke="#fbbf24" stroke-width="8" stroke-linecap="round" opacity="0.8">
    <line x1="120" y1="710" x2="280" y2="710"/>
    <line x1="400" y1="710" x2="560" y2="710"/>
    <line x1="680" y1="710" x2="840" y2="710"/>
    <line x1="960" y1="710" x2="1120" y2="710"/>
    <line x1="1240" y1="710" x2="1400" y2="710"/>
  </g>

  <g transform="translate(170 560)">
    <rect x="0" y="48" width="240" height="58" rx="18" fill="#111827"/>
    <rect x="38" y="18" width="110" height="45" rx="10" fill="#0b1220"/>
    <rect x="128" y="22" width="72" height="37" rx="8" fill="#0b1220"/>
    <circle cx="56" cy="114" r="20" fill="#020617"/>
    <circle cx="184" cy="114" r="20" fill="#020617"/>
    <circle cx="56" cy="114" r="10" fill="#9ca3af"/>
    <circle cx="184" cy="114" r="10" fill="#9ca3af"/>
    <rect x="200" y="62" width="28" height="8" rx="4" fill="#f59e0b" opacity="0.9"/>
  </g>

  <g transform="translate(910 585)">
    <rect x="0" y="42" width="210" height="50" rx="16" fill="#1f2937"/>
    <rect x="30" y="18" width="96" height="36" rx="8" fill="#111827"/>
    <rect x="110" y="22" width="62" height="31" rx="8" fill="#111827"/>
    <circle cx="48" cy="100" r="18" fill="#020617"/>
    <circle cx="165" cy="100" r="18" fill="#020617"/>
    <circle cx="48" cy="100" r="9" fill="#9ca3af"/>
    <circle cx="165" cy="100" r="9" fill="#9ca3af"/>
    <rect x="-14" y="55" width="24" height="8" rx="4" fill="#f59e0b" opacity="0.9"/>
  </g>
</svg>
