<svg xmlns="http://www.w3.org/2000/svg" viewBox="0 0 1600 900" preserveAspectRatio="xMidYMid slice">
  <defs>
    <linearGradient id="bg" x1="0" x2="1" y1="0" y2="1">
      <stop offset="0%" stop-color="#f9f3e9"/>
      <stop offset="45%" stop-color="#f1e8d8"/>
      <stop offset="100%" stop-color="#e8ddc7"/>
    </linearGradient>
    <linearGradient id="glass" x1="0" x2="0" y1="0" y2="1">
      <stop offset="0%" stop-color="#ffffff" stop-opacity="0.85"/>
      <stop offset="100%" stop-color="#ffffff" stop-opacity="0.2"/>
    </linearGradient>
    <linearGradient id="road" x1="0" x2="0" y1="0" y2="1">
      <stop offset="0%" stop-color="#6b7280"/>
      <stop offset="100%" stop-color="#374151"/>
    </linearGradient>
  </defs>

  <rect width="1600" height="900" fill="url(#bg)"/>

  <g opacity="0.35" stroke="#9ca3af" stroke-width="2" fill="none">
    <path d="M0 260 C300 210, 500 360, 820 300 C1160 240, 1320 340, 1600 280"/>
    <path d="M0 320 C260 270, 540 380, 820 340 C1090 300, 1380 400, 1600 350"/>
    <path d="M0 380 C320 330, 520 450, 820 410 C1130 370, 1410 470, 1600 430"/>
  </g>

  <g opacity="0.55">
    <rect x="90" y="130" width="220" height="160" rx="18" fill="url(#glass)"/>
    <rect x="345" y="95" width="180" height="210" rx="18" fill="url(#glass)"/>
    <rect x="560" y="70" width="230" height="240" rx="18" fill="url(#glass)"/>
    <rect x="835" y="120" width="195" height="180" rx="18" fill="url(#glass)"/>
    <rect x="1070" y="88" width="250" height="220" rx="18" fill="url(#glass)"/>
    <rect x="1360" y="140" width="160" height="165" rx="18" fill="url(#glass)"/>
  </g>

  <rect y="520" width="1600" height="380" fill="url(#road)"/>

  <g opacity="0.7" stroke="#f8fafc" stroke-width="8" stroke-linecap="round">
    <line x1="120" y1="705" x2="280" y2="705"/>
    <line x1="400" y1="705" x2="560" y2="705"/>
    <line x1="680" y1="705" x2="840" y2="705"/>
    <line x1="960" y1="705" x2="1120" y2="705"/>
    <line x1="1240" y1="705" x2="1400" y2="705"/>
  </g>

  <g transform="translate(250 560)">
    <rect x="0" y="56" width="300" height="66" rx="20" fill="#111827"/>
    <path d="M38 56 L88 18 L210 18 L262 56 Z" fill="#1f2937"/>
    <rect x="94" y="26" width="62" height="24" rx="6" fill="#cbd5e1"/>
    <rect x="164" y="26" width="54" height="24" rx="6" fill="#cbd5e1"/>
    <circle cx="66" cy="130" r="24" fill="#0f172a"/>
    <circle cx="234" cy="130" r="24" fill="#0f172a"/>
    <circle cx="66" cy="130" r="12" fill="#9ca3af"/>
    <circle cx="234" cy="130" r="12" fill="#9ca3af"/>
  </g>

  <g transform="translate(980 595) scale(0.9)">
    <rect x="0" y="56" width="300" height="66" rx="20" fill="#1f2937"/>
    <path d="M38 56 L88 18 L210 18 L262 56 Z" fill="#334155"/>
    <rect x="94" y="26" width="62" height="24" rx="6" fill="#cbd5e1"/>
    <rect x="164" y="26" width="54" height="24" rx="6" fill="#cbd5e1"/>
    <circle cx="66" cy="130" r="24" fill="#0f172a"/>
    <circle cx="234" cy="130" r="24" fill="#0f172a"/>
    <circle cx="66" cy="130" r="12" fill="#9ca3af"/>
    <circle cx="234" cy="130" r="12" fill="#9ca3af"/>
  </g>
</svg>
